<svg width="77" height="78" viewBox="0 0 77 78" fill="none" xmlns="http://www.w3.org/2000/svg">
<g clip-path="url(#clip0_39_636)">
<path d="M42.913 1.57323C44.7376 1.30765 45.4634 2.73896 45.7878 4.24122C47.14 10.5179 44.8369 17.0662 41.0377 22.011C40.4538 22.7712 38.9576 24.6607 38.2379 25.1311C35.9774 26.609 33.2628 24.0343 35.2131 21.5001C37.873 18.0455 39.8922 16.4317 40.9951 11.8032C41.733 8.70342 41.2931 7.28225 40.991 4.33246C40.8633 3.07955 41.5932 1.7638 42.9109 1.57323H42.913Z" fill="white"/>
<path d="M68.8672 31.6327C70.3735 31.5557 74.039 31.7341 75.2655 32.5795C76.4921 33.4249 76.488 35.6003 75.1702 36.4173C73.8525 37.2343 72.2042 36.3828 70.7932 36.2936C65.9478 35.9814 61.5789 38.0797 57.8992 41.0011C56.993 41.7208 55.8759 43.219 54.7041 43.2799C52.8309 43.3772 51.5273 41.2687 52.5916 39.6387C53.0356 38.9576 54.6311 37.6134 55.3204 37.0559C59.1339 33.9682 63.9164 31.8841 68.8672 31.6327Z" fill="white"/>
<path d="M70.6451 27.1787C71.9395 27.1787 72.9887 26.1294 72.9887 24.835C72.9887 23.5407 71.9395 22.4914 70.6451 22.4914C69.3508 22.4914 68.3015 23.5407 68.3015 24.835C68.3015 26.1294 69.3508 27.1787 70.6451 27.1787Z" fill="white"/>
<path d="M54.5499 11.0774C55.8409 11.0774 56.8875 10.0309 56.8875 8.73991C56.8875 7.44892 55.8409 6.40237 54.5499 6.40237C53.259 6.40237 52.2124 7.44892 52.2124 8.73991C52.2124 10.0309 53.259 11.0774 54.5499 11.0774Z" fill="white"/>
<path d="M32.0098 14.2867C33.2997 14.2867 34.3453 13.2411 34.3453 11.9512C34.3453 10.6614 33.2997 9.61572 32.0098 9.61572C30.72 9.61572 29.6743 10.6614 29.6743 11.9512C29.6743 13.2411 30.72 14.2867 32.0098 14.2867Z" fill="white"/>
<path d="M67.4175 49.6964C68.7062 49.6964 69.7509 48.6517 69.7509 47.363C69.7509 46.0742 68.7062 45.0295 67.4175 45.0295C66.1287 45.0295 65.084 46.0742 65.084 47.363C65.084 48.6517 66.1287 49.6964 67.4175 49.6964Z" fill="white"/>
<path d="M61.0071 18.384C60.8531 20.4114 62.187 22.828 61.0375 24.7114C59.444 27.3206 56.0766 25.5243 53.7229 25.6683C53.6823 27.9795 55.3954 31.2232 52.9545 32.8674C50.8805 34.2643 48.8248 32.6789 46.9758 32.8066C46.5846 32.8329 46.1406 33.3276 45.652 33.4574C42.7812 34.2156 41.2992 30.7448 43.9612 29.0357C45.6317 27.9632 47.434 28.2146 49.3195 28.4012C48.9282 26.3393 48.8633 23.8903 50.5014 22.3313C52.1395 20.7722 54.5135 20.758 56.6037 21.2689C55.7441 18.163 56.5895 14.6557 60.0604 13.8752C61.3376 13.5893 62.4587 13.784 63.7359 13.9847C63.6042 12.2817 63.3406 10.8504 64.0623 9.22647C65.3396 6.35777 68.2813 6.28681 71.0202 6.69836C70.8459 5.17988 70.6249 3.31674 71.298 1.89151C72.7414 -1.1637 76.6421 -0.269643 76.1454 2.79368C76.0359 3.47487 75.45 3.85399 75.4094 4.34461C75.2553 6.17733 76.788 8.12359 75.5534 10.2422C74.0389 12.8412 71.004 11.1585 68.9645 11.0937C67.4906 11.047 68.6381 13.7515 68.7273 14.6841C68.8753 16.2269 68.6219 17.8731 67.0608 18.5949C65.1064 19.4991 63.0142 18.2644 61.0051 18.382L61.0071 18.384Z" fill="white"/>
<path d="M1.52052 77.7205C0.431835 77.0961 -0.162179 76.2588 0.0405563 74.9492C1.88545 69.7308 4.03647 64.6016 5.77188 59.3588C6.56254 60.4556 7.05114 61.8768 7.71611 63.1033C9.29136 66.0045 11.2437 68.7333 13.4312 71.1986C13.6846 71.4844 15.345 72.936 15.1788 73.1671L3.03901 77.7226H1.52052V77.7205Z" fill="white"/>
<path d="M30.7103 62.9472C20.2431 52.3604 17.2284 36.1902 23.2233 22.4813L23.6024 22.6313L31.7929 30.832C31.8923 34.2014 31.8091 37.4046 32.3504 40.7457C33.6702 48.8815 37.6134 56.5225 43.2495 62.4708L34.2237 65.9822C33.9581 65.968 31.1137 63.3567 30.7103 62.9472Z" fill="white"/>
<path d="M29.2912 67.8554L19.8802 71.2675C14.2462 66.4505 10.0151 59.7967 8.41553 52.5226L15.789 32.8046C16.0485 32.7661 15.9512 33.1654 15.937 33.3317C14.8706 46.1729 19.1848 58.035 28.4539 66.9512C28.6384 67.1297 29.4838 67.5939 29.2912 67.8554Z" fill="white"/>
<path d="M36.2734 35.3813L55.6955 54.7304C57.0031 57.1206 55.5576 57.8991 53.6093 58.7141C51.8313 59.4561 49.9581 60.0137 48.1659 60.7232C47.9773 60.7658 47.8679 60.6685 47.7219 60.5833C47.3853 60.3847 45.8202 58.7101 45.4513 58.3006C39.9146 52.1415 36.5187 43.6833 36.2734 35.3834V35.3813Z" fill="white"/>
</g>
<defs>
<clipPath id="clip0_39_636">
<rect width="76.1899" height="77.7205" fill="white"/>
</clipPath>
</defs>
</svg>
