<svg width="27" height="36" viewBox="0 0 27 36" fill="none" xmlns="http://www.w3.org/2000/svg">
<g clip-path="url(#clip0_740_1220)">
<path d="M25.2664 31.5596L19.0206 29.5042L16.9396 35.814L13.9785 29.8104L15.5904 25.2985C16.1752 25.1882 16.6867 24.8223 16.9762 24.2907C17.1234 24.0216 17.4038 23.8559 17.7082 23.8559C17.8314 23.8559 17.952 23.8836 18.0638 23.9368C18.3371 24.066 18.6251 24.1307 18.9235 24.1307C19.8406 24.1307 20.634 23.5106 20.8661 22.6366L25.2662 31.5598L25.2664 31.5596Z" fill="#D62629"/>
<path d="M14.781 25.288L9.58889 35.8138L7.5079 29.5043L1.26074 31.5594L5.66213 22.6365C5.89424 23.5105 6.68788 24.1305 7.605 24.1305C7.90339 24.1305 8.19137 24.0658 8.46471 23.9366C8.57644 23.8837 8.69681 23.8558 8.82029 23.8558C9.12445 23.8558 9.40511 24.0217 9.55076 24.2892C9.90346 24.9341 10.5794 25.3352 11.3158 25.3352C11.8301 25.3352 12.3181 25.1413 12.693 24.7872C12.8488 24.6402 13.0516 24.5594 13.2647 24.5594C13.4777 24.5594 13.6806 24.6402 13.8364 24.7872C14.104 25.0398 14.4301 25.2118 14.7815 25.288H14.781Z" fill="#E83136"/>
<path d="M15.5906 25.2983L13.9784 29.8113L13.2642 28.3613L14.7807 25.2881C14.9204 25.3189 15.0658 25.3351 15.2128 25.3351C15.3407 25.3351 15.4671 25.3233 15.5906 25.2983Z" fill="#BF131C"/>
<mask id="path-4-inside-1_740_1220" fill="white">
<path d="M14.2062 0.374207C14.86 -0.242744 15.921 -0.074767 16.3519 0.713929C16.7004 1.35171 17.4863 1.607 18.1434 1.29587C18.9559 0.910937 19.9129 1.39847 20.0792 2.28179C20.2135 2.99603 20.8819 3.48157 21.6031 3.38849C22.4947 3.27348 23.2542 4.0327 23.1391 4.924C23.046 5.64489 23.5317 6.31303 24.2462 6.44732C25.1299 6.6133 25.6176 7.56998 25.2325 8.38239C24.9213 9.03923 25.1764 9.8246 25.8147 10.1732C26.6037 10.604 26.7717 11.6646 26.1545 12.3181C25.6555 12.8466 25.6555 13.6726 26.1545 14.2009C26.7717 14.8544 26.6037 15.915 25.8147 16.3458C25.1767 16.6942 24.9213 17.4798 25.2325 18.1366C25.6176 18.9488 25.1299 19.9055 24.2462 20.0717C23.5317 20.206 23.046 20.8741 23.1391 21.595C23.2542 22.4863 22.4947 23.2455 21.6031 23.1305C20.8819 23.0374 20.2135 23.523 20.0792 24.2372C19.9131 25.1205 18.9561 25.608 18.1434 25.2231C17.4863 24.912 16.7007 25.167 16.3519 25.8051C15.921 26.5938 14.86 26.7617 14.2062 26.1448C13.6775 25.6459 12.8513 25.6459 12.3228 26.1448C11.669 26.7617 10.608 26.5938 10.1771 25.8051C9.82856 25.1673 9.04268 24.912 8.3856 25.2231C7.57311 25.608 6.61609 25.1205 6.44982 24.2372C6.31548 23.523 5.64709 23.0374 4.92594 23.1305C4.03431 23.2455 3.27481 22.4863 3.38986 21.595C3.48297 20.8741 2.99725 20.206 2.28276 20.0717C1.39911 19.9057 0.911395 18.949 1.29647 18.1366C1.60772 17.4798 1.35255 16.6944 0.714314 16.3458C-0.0746725 15.915 -0.242712 14.8544 0.374467 14.2009C0.873486 13.6723 0.873486 12.8464 0.374467 12.3181C-0.242712 11.6646 -0.0746725 10.604 0.714314 10.1732C1.35233 9.82482 1.60772 9.03923 1.29647 8.38239C0.911395 7.5702 1.39911 6.61353 2.28276 6.44732C2.99725 6.31303 3.48297 5.64489 3.38986 4.924C3.27481 4.0327 4.03431 3.27348 4.92594 3.38849C5.64709 3.48157 6.31548 2.99603 6.44982 2.28179C6.61586 1.39847 7.57289 0.910937 8.3856 1.29587C9.04268 1.607 9.82834 1.35193 10.1771 0.713929C10.608 -0.074767 11.669 -0.242744 12.3228 0.374207C12.8515 0.873042 13.6777 0.873042 14.2062 0.374207Z"/>
</mask>
<path d="M14.2062 0.374207C14.86 -0.242744 15.921 -0.074767 16.3519 0.713929C16.7004 1.35171 17.4863 1.607 18.1434 1.29587C18.9559 0.910937 19.9129 1.39847 20.0792 2.28179C20.2135 2.99603 20.8819 3.48157 21.6031 3.38849C22.4947 3.27348 23.2542 4.0327 23.1391 4.924C23.046 5.64489 23.5317 6.31303 24.2462 6.44732C25.1299 6.6133 25.6176 7.56998 25.2325 8.38239C24.9213 9.03923 25.1764 9.8246 25.8147 10.1732C26.6037 10.604 26.7717 11.6646 26.1545 12.3181C25.6555 12.8466 25.6555 13.6726 26.1545 14.2009C26.7717 14.8544 26.6037 15.915 25.8147 16.3458C25.1767 16.6942 24.9213 17.4798 25.2325 18.1366C25.6176 18.9488 25.1299 19.9055 24.2462 20.0717C23.5317 20.206 23.046 20.8741 23.1391 21.595C23.2542 22.4863 22.4947 23.2455 21.6031 23.1305C20.8819 23.0374 20.2135 23.523 20.0792 24.2372C19.9131 25.1205 18.9561 25.608 18.1434 25.2231C17.4863 24.912 16.7007 25.167 16.3519 25.8051C15.921 26.5938 14.86 26.7617 14.2062 26.1448C13.6775 25.6459 12.8513 25.6459 12.3228 26.1448C11.669 26.7617 10.608 26.5938 10.1771 25.8051C9.82856 25.1673 9.04268 24.912 8.3856 25.2231C7.57311 25.608 6.61609 25.1205 6.44982 24.2372C6.31548 23.523 5.64709 23.0374 4.92594 23.1305C4.03431 23.2455 3.27481 22.4863 3.38986 21.595C3.48297 20.8741 2.99725 20.206 2.28276 20.0717C1.39911 19.9057 0.911395 18.949 1.29647 18.1366C1.60772 17.4798 1.35255 16.6944 0.714314 16.3458C-0.0746725 15.915 -0.242712 14.8544 0.374467 14.2009C0.873486 13.6723 0.873486 12.8464 0.374467 12.3181C-0.242712 11.6646 -0.0746725 10.604 0.714314 10.1732C1.35233 9.82482 1.60772 9.03923 1.29647 8.38239C0.911395 7.5702 1.39911 6.61353 2.28276 6.44732C2.99725 6.31303 3.48297 5.64489 3.38986 4.924C3.27481 4.0327 4.03431 3.27348 4.92594 3.38849C5.64709 3.48157 6.31548 2.99603 6.44982 2.28179C6.61586 1.39847 7.57289 0.910937 8.3856 1.29587C9.04268 1.607 9.82834 1.35193 10.1771 0.713929C10.608 -0.074767 11.669 -0.242744 12.3228 0.374207C12.8515 0.873042 13.6777 0.873042 14.2062 0.374207Z" fill="#FBE74C" stroke="#FBBA2C" stroke-width="0.663218" mask="url(#path-4-inside-1_740_1220)"/>
<path d="M17.2555 4.55429C16.4778 4.37545 15.6673 4.28193 14.8342 4.28193C8.86635 4.28193 4.02956 9.11693 4.02956 15.0826C4.02956 15.362 4.03954 15.6401 4.06082 15.914C3.81807 15.0713 3.6875 14.1804 3.6875 13.2596C3.6875 7.97212 7.97494 3.68604 13.2646 3.68604C14.6896 3.68604 16.0406 3.99673 17.2555 4.55429Z" fill="#F9981A"/>
<path d="M22.8415 13.2596C22.8415 18.5471 18.5541 22.8332 13.2644 22.8332C8.89601 22.8332 5.21156 19.9107 4.06055 15.9155V15.9142C4.03927 15.6403 4.0293 15.3624 4.0293 15.0827C4.0293 9.11711 8.86608 4.2821 14.8339 4.2821C15.667 4.2821 16.4773 4.37584 17.2552 4.55446C20.5521 6.06692 22.8413 9.39655 22.8413 13.2598L22.8415 13.2596Z" fill="#FBBA2C"/>
<g filter="url(#filter0_d_740_1220)">
<path d="M12.1671 18.5319V9.68588C11.5623 10.0723 10.8314 10.3831 9.97452 10.6184L9.84851 10.2151C10.8062 9.9295 11.5371 9.58507 12.0411 9.18183C12.562 8.7618 12.898 8.14014 13.0492 7.31687C13.6205 7.24966 14.0741 7.14045 14.4101 6.98924V18.5319H16.6027V18.9099H10.1509V18.5319H12.1671Z" fill="#FBE74C"/>
</g>
<path d="M5.35524 5.40845C5.10783 6.87792 4.47248 7.74506 3.51855 8.11714C4.47248 8.48944 5.10761 9.35658 5.35524 10.8258C5.60264 9.35636 6.238 8.48921 7.19192 8.11714C6.238 7.74484 5.60286 6.8777 5.35524 5.40845Z" fill="white"/>
<path d="M7.98237 3.9397C7.84825 4.73659 7.50375 5.20662 6.98633 5.4085C7.50353 5.61039 7.84803 6.08063 7.98237 6.87731C8.11649 6.08041 8.461 5.61039 8.97841 5.4085C8.46122 5.20662 8.11671 4.73637 7.98237 3.9397Z" fill="white"/>
<path d="M13.9788 29.8107L13.9786 29.8116L13.3501 28.5358L13.9788 29.8107Z" fill="#BF131C"/>
</g>
<defs>
<filter id="filter0_d_740_1220" x="9.84863" y="6.98926" width="7.26639" height="12.4331" filterUnits="userSpaceOnUse" color-interpolation-filters="sRGB">
<feFlood flood-opacity="0" result="BackgroundImageFix"/>
<feColorMatrix in="SourceAlpha" type="matrix" values="0 0 0 0 0 0 0 0 0 0 0 0 0 0 0 0 0 0 127 0" result="hardAlpha"/>
<feOffset dx="0.512486" dy="0.512486"/>
<feComposite in2="hardAlpha" operator="out"/>
<feColorMatrix type="matrix" values="0 0 0 0 0.976471 0 0 0 0 0.596078 0 0 0 0 0.101961 0 0 0 1 0"/>
<feBlend mode="normal" in2="BackgroundImageFix" result="effect1_dropShadow_740_1220"/>
<feBlend mode="normal" in="SourceGraphic" in2="effect1_dropShadow_740_1220" result="shape"/>
</filter>
<clipPath id="clip0_740_1220">
<rect width="26.5287" height="35.8138" fill="white"/>
</clipPath>
</defs>
</svg>
