<svg width="27" height="36" viewBox="0 0 27 36" fill="none" xmlns="http://www.w3.org/2000/svg">
<g clip-path="url(#clip0_740_1207)">
<path d="M25.4383 31.5596L19.1925 29.5042L17.1115 35.814L14.1504 29.8104L15.7623 25.2985C16.3471 25.1882 16.8585 24.8223 17.1481 24.2907C17.2953 24.0216 17.5757 23.8559 17.8801 23.8559C18.0033 23.8559 18.1239 23.8836 18.2357 23.9368C18.509 24.066 18.797 24.1307 19.0954 24.1307C20.0125 24.1307 20.8059 23.5106 21.038 22.6366L25.4381 31.5598L25.4383 31.5596Z" fill="#D62629"/>
<path d="M14.9529 25.2879L9.76076 35.8137L7.67978 29.5041L1.43262 31.5593L5.83401 22.6364C6.06611 23.5104 6.85975 24.1304 7.77688 24.1304C8.07527 24.1304 8.36324 24.0657 8.63658 23.9365C8.74831 23.8836 8.86869 23.8556 8.99217 23.8556C9.29632 23.8556 9.57698 24.0216 9.72263 24.2891C10.0753 24.934 10.7513 25.3351 11.4877 25.3351C12.002 25.3351 12.49 25.1412 12.8646 24.787C13.0205 24.6401 13.2233 24.5592 13.4363 24.5592C13.6494 24.5592 13.8522 24.6401 14.0081 24.787C14.2757 25.0397 14.6018 25.2116 14.9531 25.2879H14.9529Z" fill="#E83136"/>
<path d="M15.7629 25.2983L14.1508 29.8113L13.4365 28.3613L14.9531 25.2881C15.0928 25.3189 15.2382 25.3351 15.3852 25.3351C15.5131 25.3351 15.6394 25.3233 15.7629 25.2983Z" fill="#BF131C"/>
<path d="M14.1509 29.8107L14.1507 29.8116L13.5225 28.5358L14.1509 29.8107Z" fill="#BF131C"/>
<mask id="path-5-inside-1_740_1207" fill="white">
<path d="M14.2062 0.374207C14.86 -0.242744 15.921 -0.074767 16.3519 0.713929C16.7004 1.35171 17.4863 1.607 18.1434 1.29587C18.9559 0.910937 19.9129 1.39847 20.0792 2.28179C20.2135 2.99603 20.8819 3.48157 21.6031 3.38849C22.4947 3.27348 23.2542 4.0327 23.1391 4.924C23.046 5.64489 23.5317 6.31303 24.2462 6.44732C25.1299 6.6133 25.6176 7.56998 25.2325 8.38239C24.9213 9.03923 25.1764 9.8246 25.8147 10.1732C26.6037 10.604 26.7717 11.6646 26.1545 12.3181C25.6555 12.8466 25.6555 13.6726 26.1545 14.2009C26.7717 14.8544 26.6037 15.915 25.8147 16.3458C25.1767 16.6942 24.9213 17.4798 25.2325 18.1366C25.6176 18.9488 25.1299 19.9055 24.2462 20.0717C23.5317 20.206 23.046 20.8741 23.1391 21.595C23.2542 22.4863 22.4947 23.2455 21.6031 23.1305C20.8819 23.0374 20.2135 23.523 20.0792 24.2372C19.9131 25.1205 18.9561 25.608 18.1434 25.2231C17.4863 24.912 16.7007 25.167 16.3519 25.8051C15.921 26.5937 14.86 26.7617 14.2062 26.1448C13.6775 25.6459 12.8513 25.6459 12.3228 26.1448C11.669 26.7617 10.608 26.5937 10.1771 25.8051C9.82856 25.1673 9.04268 24.912 8.3856 25.2231C7.57311 25.608 6.61609 25.1205 6.44982 24.2372C6.31548 23.523 5.64709 23.0374 4.92594 23.1305C4.03431 23.2455 3.27481 22.4863 3.38986 21.595C3.48297 20.8741 2.99725 20.206 2.28276 20.0717C1.39911 19.9057 0.911395 18.949 1.29647 18.1366C1.60772 17.4798 1.35255 16.6944 0.714314 16.3458C-0.0746725 15.915 -0.242712 14.8544 0.374467 14.2009C0.873486 13.6723 0.873486 12.8464 0.374467 12.3181C-0.242712 11.6646 -0.0746725 10.604 0.714314 10.1732C1.35233 9.82482 1.60772 9.03923 1.29647 8.38239C0.911395 7.5702 1.39911 6.61353 2.28276 6.44732C2.99725 6.31303 3.48297 5.64489 3.38986 4.924C3.27481 4.0327 4.03431 3.27348 4.92594 3.38849C5.64709 3.48157 6.31548 2.99603 6.44982 2.28179C6.61586 1.39847 7.57289 0.910937 8.3856 1.29587C9.04268 1.607 9.82834 1.35193 10.1771 0.713929C10.608 -0.074767 11.669 -0.242744 12.3228 0.374207C12.8515 0.873042 13.6777 0.873042 14.2062 0.374207Z"/>
</mask>
<path d="M14.2062 0.374207C14.86 -0.242744 15.921 -0.074767 16.3519 0.713929C16.7004 1.35171 17.4863 1.607 18.1434 1.29587C18.9559 0.910937 19.9129 1.39847 20.0792 2.28179C20.2135 2.99603 20.8819 3.48157 21.6031 3.38849C22.4947 3.27348 23.2542 4.0327 23.1391 4.924C23.046 5.64489 23.5317 6.31303 24.2462 6.44732C25.1299 6.6133 25.6176 7.56998 25.2325 8.38239C24.9213 9.03923 25.1764 9.8246 25.8147 10.1732C26.6037 10.604 26.7717 11.6646 26.1545 12.3181C25.6555 12.8466 25.6555 13.6726 26.1545 14.2009C26.7717 14.8544 26.6037 15.915 25.8147 16.3458C25.1767 16.6942 24.9213 17.4798 25.2325 18.1366C25.6176 18.9488 25.1299 19.9055 24.2462 20.0717C23.5317 20.206 23.046 20.8741 23.1391 21.595C23.2542 22.4863 22.4947 23.2455 21.6031 23.1305C20.8819 23.0374 20.2135 23.523 20.0792 24.2372C19.9131 25.1205 18.9561 25.608 18.1434 25.2231C17.4863 24.912 16.7007 25.167 16.3519 25.8051C15.921 26.5937 14.86 26.7617 14.2062 26.1448C13.6775 25.6459 12.8513 25.6459 12.3228 26.1448C11.669 26.7617 10.608 26.5937 10.1771 25.8051C9.82856 25.1673 9.04268 24.912 8.3856 25.2231C7.57311 25.608 6.61609 25.1205 6.44982 24.2372C6.31548 23.523 5.64709 23.0374 4.92594 23.1305C4.03431 23.2455 3.27481 22.4863 3.38986 21.595C3.48297 20.8741 2.99725 20.206 2.28276 20.0717C1.39911 19.9057 0.911395 18.949 1.29647 18.1366C1.60772 17.4798 1.35255 16.6944 0.714314 16.3458C-0.0746725 15.915 -0.242712 14.8544 0.374467 14.2009C0.873486 13.6723 0.873486 12.8464 0.374467 12.3181C-0.242712 11.6646 -0.0746725 10.604 0.714314 10.1732C1.35233 9.82482 1.60772 9.03923 1.29647 8.38239C0.911395 7.5702 1.39911 6.61353 2.28276 6.44732C2.99725 6.31303 3.48297 5.64489 3.38986 4.924C3.27481 4.0327 4.03431 3.27348 4.92594 3.38849C5.64709 3.48157 6.31548 2.99603 6.44982 2.28179C6.61586 1.39847 7.57289 0.910937 8.3856 1.29587C9.04268 1.607 9.82834 1.35193 10.1771 0.713929C10.608 -0.074767 11.669 -0.242744 12.3228 0.374207C12.8515 0.873042 13.6777 0.873042 14.2062 0.374207Z" fill="#E9A77A" stroke="#C67746" stroke-width="0.663218" mask="url(#path-5-inside-1_740_1207)"/>
<path d="M17.2555 4.55417C16.4778 4.37533 15.6673 4.28181 14.8342 4.28181C8.86635 4.28181 4.02956 9.11681 4.02956 15.0824C4.02956 15.3619 4.03954 15.64 4.06082 15.9139C3.81807 15.0711 3.6875 14.1803 3.6875 13.2595C3.6875 7.972 7.97494 3.68591 13.2646 3.68591C14.6896 3.68591 16.0406 3.9966 17.2555 4.55417Z" fill="#B35E31"/>
<path d="M22.8418 13.2596C22.8418 18.5471 18.5543 22.8332 13.2649 22.8332C8.8965 22.8332 5.21205 19.9107 4.06104 15.9155V15.9142C4.03976 15.6403 4.02979 15.3624 4.02979 15.0827C4.02979 9.11711 8.86657 4.2821 14.8344 4.2821C15.6675 4.2821 16.4778 4.37584 17.2557 4.55446C20.5526 6.06692 22.8418 9.39655 22.8418 13.2598V13.2596Z" fill="#C67746"/>
<g filter="url(#filter0_d_740_1207)">
<path d="M10.0646 9.43203C10.0646 8.68834 10.3402 8.11776 10.8916 7.72027C11.4558 7.30996 12.1995 7.1048 13.1227 7.1048C14.0587 7.1048 14.8665 7.32278 15.5461 7.75873C16.2385 8.19469 16.5847 8.8358 16.5847 9.68206C16.5847 10.5155 16.3475 11.163 15.873 11.6246C15.4114 12.0734 14.7126 12.4517 13.7766 12.7594L13.8151 12.9325C14.828 12.9325 15.6294 13.2466 16.2192 13.8749C16.8091 14.5032 17.104 15.3302 17.104 16.356C17.104 17.6254 16.7193 18.6191 15.95 19.3372C15.1806 20.0552 14.1484 20.4143 12.8534 20.4143C11.943 20.4143 11.1865 20.2219 10.5839 19.8373C9.98122 19.4526 9.6799 18.8692 9.6799 18.087C9.6799 17.7024 9.80171 17.3754 10.0453 17.1061C10.3018 16.8497 10.5967 16.7215 10.9301 16.7215C11.2763 16.7215 11.5519 16.8176 11.7571 17.01C11.9751 17.2151 12.0841 17.4587 12.0841 17.7408C12.0841 18.0357 12.0007 18.2794 11.834 18.4717C11.6673 18.6768 11.443 18.7794 11.1609 18.7794C10.7249 18.7794 10.4685 18.6127 10.3915 18.2794C10.3659 18.164 10.3018 18.1063 10.1992 18.1063C10.0966 18.1063 10.0453 18.164 10.0453 18.2794C10.0453 18.7281 10.2633 19.132 10.6993 19.4911C11.1352 19.8501 11.7699 20.0296 12.6034 20.0296C13.4368 20.0296 14.0779 19.7154 14.5267 19.0872C14.9755 18.4589 15.1999 17.6703 15.1999 16.7215C15.1999 15.7854 15.0139 14.9905 14.6421 14.3365C14.2703 13.6826 13.7061 13.3556 12.9496 13.3556C12.7444 13.3556 12.3277 13.4774 11.6994 13.7211L11.5648 13.3941C13.7317 12.4837 14.8152 11.2784 14.8152 9.77823C14.8152 9.08583 14.6293 8.53448 14.2574 8.12417C13.8984 7.70103 13.3663 7.48947 12.6611 7.48947C11.9558 7.48947 11.4045 7.67539 11.007 8.04723C10.6223 8.40625 10.43 8.80374 10.43 9.2397C10.43 9.3551 10.4813 9.4128 10.5839 9.4128C10.6864 9.4128 10.7506 9.3551 10.7762 9.2397C10.8531 8.88068 11.1096 8.70117 11.5455 8.70117C11.8276 8.70117 12.052 8.79733 12.2187 8.98967C12.3982 9.16918 12.488 9.4128 12.488 9.72053C12.488 10.0154 12.379 10.2655 12.161 10.4706C11.943 10.663 11.6609 10.7591 11.3147 10.7591C10.9814 10.7591 10.6864 10.6373 10.43 10.3937C10.1864 10.1373 10.0646 9.8167 10.0646 9.43203Z" fill="#E9A77A"/>
</g>
<path d="M5.50026 5.40857C5.25285 6.87804 4.6175 7.74518 3.66357 8.11726C4.6175 8.48956 5.25263 9.3567 5.50026 10.826C5.74766 9.35648 6.38302 8.48934 7.33694 8.11726C6.38302 7.74496 5.74788 6.87782 5.50026 5.40857Z" fill="white"/>
<path d="M7.98264 3.9397C7.84852 4.73659 7.50401 5.20662 6.98682 5.4085C7.50401 5.61039 7.84852 6.08063 7.98264 6.87731C8.11676 6.08041 8.46126 5.61039 8.97868 5.4085C8.46148 5.20662 8.11698 4.73637 7.98264 3.9397Z" fill="white"/>
</g>
<defs>
<filter id="filter0_d_740_1207" x="9.67969" y="7.10486" width="7.9368" height="13.8219" filterUnits="userSpaceOnUse" color-interpolation-filters="sRGB">
<feFlood flood-opacity="0" result="BackgroundImageFix"/>
<feColorMatrix in="SourceAlpha" type="matrix" values="0 0 0 0 0 0 0 0 0 0 0 0 0 0 0 0 0 0 127 0" result="hardAlpha"/>
<feOffset dx="0.512486" dy="0.512486"/>
<feComposite in2="hardAlpha" operator="out"/>
<feColorMatrix type="matrix" values="0 0 0 0 0.701961 0 0 0 0 0.368627 0 0 0 0 0.192157 0 0 0 1 0"/>
<feBlend mode="normal" in2="BackgroundImageFix" result="effect1_dropShadow_740_1207"/>
<feBlend mode="normal" in="SourceGraphic" in2="effect1_dropShadow_740_1207" result="shape"/>
</filter>
<clipPath id="clip0_740_1207">
<rect width="26.5287" height="35.8138" fill="white"/>
</clipPath>
</defs>
</svg>
