<svg width="27" height="36" viewBox="0 0 27 36" fill="none" xmlns="http://www.w3.org/2000/svg">
<g clip-path="url(#clip0_740_1190)">
<path d="M25.2676 31.5662L19.0216 29.5108L16.9406 35.8206L13.9795 29.817L15.5914 25.3051C16.1762 25.1948 16.6876 24.8289 16.9772 24.2973C17.1244 24.0282 17.4048 23.8625 17.7092 23.8625C17.8324 23.8625 17.953 23.8902 18.0648 23.9434C18.3381 24.0725 18.6261 24.1373 18.9245 24.1373C19.8416 24.1373 20.635 23.5172 20.8671 22.6432L25.2672 31.5664L25.2676 31.5662Z" fill="#D62629"/>
<path d="M14.782 25.2945L9.58986 35.8203L7.50888 29.5107L1.26172 31.5659L5.66311 22.6429C5.89521 23.517 6.68886 24.137 7.60598 24.137C7.90437 24.137 8.19234 24.0723 8.46568 23.9431C8.57741 23.8901 8.69779 23.8622 8.82127 23.8622C9.12543 23.8622 9.40608 24.0282 9.55173 24.2957C9.90444 24.9406 10.5804 25.3417 11.3168 25.3417C11.8311 25.3417 12.3191 25.1478 12.6939 24.7936C12.8498 24.6467 13.0526 24.5658 13.2657 24.5658C13.4787 24.5658 13.6816 24.6467 13.8374 24.7936C14.105 25.0463 14.4311 25.2182 14.7825 25.2945H14.782Z" fill="#E83136"/>
<path d="M15.5915 25.3049L13.9794 29.8179L13.2651 28.3679L14.7817 25.2947C14.9214 25.3255 15.0668 25.3417 15.2138 25.3417C15.3417 25.3417 15.468 25.3299 15.5915 25.3049Z" fill="#BF131C"/>
<path d="M13.9796 29.8168L13.9793 29.8177L13.3511 28.5424L13.9796 29.8168Z" fill="#BF131C"/>
<mask id="path-5-inside-1_740_1190" fill="white">
<path d="M14.2062 0.380921C14.86 -0.236031 15.921 -0.0680532 16.3519 0.720643C16.7004 1.35843 17.4863 1.61372 18.1434 1.30258C18.9559 0.917651 19.9129 1.40518 20.0792 2.28851C20.2135 3.00274 20.8819 3.48828 21.6031 3.39521C22.4947 3.28019 23.2542 4.03941 23.1391 4.93071C23.046 5.6516 23.5317 6.31974 24.2462 6.45404C25.1299 6.62002 25.6176 7.57669 25.2325 8.3891C24.9213 9.04594 25.1764 9.83131 25.8147 10.1799C26.6037 10.6107 26.7717 11.6713 26.1545 12.3248C25.6555 12.8534 25.6555 13.6793 26.1545 14.2076C26.7717 14.8611 26.6037 15.9217 25.8147 16.3525C25.1767 16.7009 24.9213 17.4865 25.2325 18.1433C25.6176 18.9555 25.1299 19.9122 24.2462 20.0784C23.5317 20.2127 23.046 20.8808 23.1391 21.6017C23.2542 22.493 22.4947 23.2522 21.6031 23.1372C20.8819 23.0441 20.2135 23.5297 20.0792 24.2439C19.9131 25.1272 18.9561 25.6148 18.1434 25.2298C17.4863 24.9187 16.7007 25.1738 16.3519 25.8118C15.921 26.6005 14.86 26.7684 14.2062 26.1515C13.6775 25.6527 12.8513 25.6527 12.3228 26.1515C11.669 26.7684 10.608 26.6005 10.1771 25.8118C9.82856 25.174 9.04268 24.9187 8.3856 25.2298C7.57311 25.6148 6.61609 25.1272 6.44982 24.2439C6.31548 23.5297 5.64709 23.0441 4.92594 23.1372C4.03431 23.2522 3.27481 22.493 3.38986 21.6017C3.48297 20.8808 2.99725 20.2127 2.28276 20.0784C1.39911 19.9124 0.911395 18.9557 1.29647 18.1433C1.60772 17.4865 1.35255 16.7011 0.714314 16.3525C-0.0746725 15.9217 -0.242712 14.8611 0.374467 14.2076C0.873486 13.6791 0.873486 12.8531 0.374467 12.3248C-0.242712 11.6713 -0.0746725 10.6107 0.714314 10.1799C1.35233 9.83153 1.60772 9.04594 1.29647 8.3891C0.911395 7.57691 1.39911 6.62024 2.28276 6.45404C2.99725 6.31974 3.48297 5.6516 3.38986 4.93071C3.27481 4.03941 4.03431 3.28019 4.92594 3.39521C5.64709 3.48828 6.31548 3.00274 6.44982 2.28851C6.61586 1.40518 7.57289 0.917651 8.3856 1.30258C9.04268 1.61372 9.82834 1.35865 10.1771 0.720643C10.608 -0.0680532 11.669 -0.236031 12.3228 0.380921C12.8515 0.879756 13.6777 0.879756 14.2062 0.380921Z"/>
</mask>
<path d="M14.2062 0.380921C14.86 -0.236031 15.921 -0.0680532 16.3519 0.720643C16.7004 1.35843 17.4863 1.61372 18.1434 1.30258C18.9559 0.917651 19.9129 1.40518 20.0792 2.28851C20.2135 3.00274 20.8819 3.48828 21.6031 3.39521C22.4947 3.28019 23.2542 4.03941 23.1391 4.93071C23.046 5.6516 23.5317 6.31974 24.2462 6.45404C25.1299 6.62002 25.6176 7.57669 25.2325 8.3891C24.9213 9.04594 25.1764 9.83131 25.8147 10.1799C26.6037 10.6107 26.7717 11.6713 26.1545 12.3248C25.6555 12.8534 25.6555 13.6793 26.1545 14.2076C26.7717 14.8611 26.6037 15.9217 25.8147 16.3525C25.1767 16.7009 24.9213 17.4865 25.2325 18.1433C25.6176 18.9555 25.1299 19.9122 24.2462 20.0784C23.5317 20.2127 23.046 20.8808 23.1391 21.6017C23.2542 22.493 22.4947 23.2522 21.6031 23.1372C20.8819 23.0441 20.2135 23.5297 20.0792 24.2439C19.9131 25.1272 18.9561 25.6148 18.1434 25.2298C17.4863 24.9187 16.7007 25.1738 16.3519 25.8118C15.921 26.6005 14.86 26.7684 14.2062 26.1515C13.6775 25.6527 12.8513 25.6527 12.3228 26.1515C11.669 26.7684 10.608 26.6005 10.1771 25.8118C9.82856 25.174 9.04268 24.9187 8.3856 25.2298C7.57311 25.6148 6.61609 25.1272 6.44982 24.2439C6.31548 23.5297 5.64709 23.0441 4.92594 23.1372C4.03431 23.2522 3.27481 22.493 3.38986 21.6017C3.48297 20.8808 2.99725 20.2127 2.28276 20.0784C1.39911 19.9124 0.911395 18.9557 1.29647 18.1433C1.60772 17.4865 1.35255 16.7011 0.714314 16.3525C-0.0746725 15.9217 -0.242712 14.8611 0.374467 14.2076C0.873486 13.6791 0.873486 12.8531 0.374467 12.3248C-0.242712 11.6713 -0.0746725 10.6107 0.714314 10.1799C1.35233 9.83153 1.60772 9.04594 1.29647 8.3891C0.911395 7.57691 1.39911 6.62024 2.28276 6.45404C2.99725 6.31974 3.48297 5.6516 3.38986 4.93071C3.27481 4.03941 4.03431 3.28019 4.92594 3.39521C5.64709 3.48828 6.31548 3.00274 6.44982 2.28851C6.61586 1.40518 7.57289 0.917651 8.3856 1.30258C9.04268 1.61372 9.82834 1.35865 10.1771 0.720643C10.608 -0.0680532 11.669 -0.236031 12.3228 0.380921C12.8515 0.879756 13.6777 0.879756 14.2062 0.380921Z" fill="#DFE1DE" stroke="#ACB0B1" stroke-width="0.663218" mask="url(#path-5-inside-1_740_1190)"/>
<path d="M17.2555 4.56076C16.4778 4.38192 15.6673 4.2884 14.8342 4.2884C8.86635 4.2884 4.02956 9.1234 4.02956 15.089C4.02956 15.3685 4.03954 15.6466 4.06082 15.9205C3.81807 15.0777 3.6875 14.1869 3.6875 13.2661C3.6875 7.97859 7.97494 3.6925 13.2646 3.6925C14.6896 3.6925 16.0406 4.0032 17.2555 4.56076Z" fill="#838989"/>
<path d="M22.842 13.2662C22.842 18.5537 18.5545 22.8398 13.2649 22.8398C8.8965 22.8398 5.21205 19.9172 4.06104 15.9221V15.9208C4.03976 15.6469 4.02979 15.369 4.02979 15.0893C4.02979 9.1237 8.86657 4.2887 14.8344 4.2887C15.6675 4.2887 16.4778 4.38244 17.2557 4.56105C20.5526 6.07351 22.8418 9.40314 22.8418 13.2664L22.842 13.2662Z" fill="#ACB0B1"/>
<g filter="url(#filter0_d_740_1190)">
<path d="M9.24527 10.6835C9.24527 9.78596 9.57798 9.09732 10.2434 8.61759C10.9243 8.12239 11.8296 7.87479 12.9593 7.87479C14.1044 7.87479 15.1026 8.13013 15.9537 8.6408C16.8048 9.13601 17.2304 9.8556 17.2304 10.7996C17.2304 11.7436 16.9596 12.5173 16.418 13.1208C15.8763 13.7089 15.2187 14.1654 14.4449 14.4904C13.6866 14.8154 12.9206 15.1171 12.1468 15.3957C11.3731 15.6742 10.7154 16.0379 10.1738 16.4867C9.63215 16.92 9.36133 17.4461 9.36133 18.0651L9.50061 18.1348C9.77916 17.7943 10.1351 17.5467 10.5684 17.392C11.0017 17.2372 11.7213 17.1598 12.7272 17.1598H16.3483C16.6888 17.1598 16.9286 17.0747 17.0679 16.9045C17.2227 16.7343 17.3078 16.4557 17.3233 16.0688H17.6018V19.0168H8.94351V18.0883C8.94351 17.4848 9.15242 16.9354 9.57025 16.4402C9.98807 15.945 10.491 15.5272 11.0791 15.1868C11.6671 14.8308 12.2552 14.4749 12.8432 14.119C13.4313 13.7631 13.9342 13.3298 14.352 12.8191C14.7699 12.3084 14.9788 11.6894 14.9788 10.9621C14.9788 10.2193 14.7544 9.60026 14.3056 9.10506C13.8723 8.59438 13.2301 8.33904 12.379 8.33904C11.5278 8.33904 10.8624 8.56343 10.3827 9.01221C9.91844 9.44551 9.68631 9.92524 9.68631 10.4514C9.68631 10.5907 9.74821 10.6603 9.87201 10.6603C10.0113 10.6603 10.0887 10.5907 10.1041 10.4514C10.197 10.0181 10.5065 9.80144 11.0326 9.80144C11.3731 9.80144 11.6439 9.9175 11.8451 10.1496C12.0617 10.3663 12.1701 10.6603 12.1701 11.0317C12.1701 11.3876 12.0385 11.6894 11.7754 11.937C11.5124 12.1691 11.1719 12.2852 10.7541 12.2852C10.3517 12.2852 9.99581 12.1382 9.68631 11.8441C9.39228 11.5346 9.24527 11.1478 9.24527 10.6835Z" fill="#DFE1DE"/>
</g>
<path d="M5.50026 5.41504C5.25285 6.88451 4.6175 7.75165 3.66357 8.12373C4.6175 8.49603 5.25263 9.36317 5.50026 10.8324C5.74766 9.36295 6.38302 8.49581 7.33694 8.12373C6.38302 7.75143 5.74788 6.88429 5.50026 5.41504Z" fill="white"/>
<path d="M7.98286 3.94629C7.84874 4.74318 7.50424 5.21321 6.98682 5.41509C7.50401 5.61698 7.84852 6.08723 7.98286 6.8839C8.11698 6.087 8.46148 5.61698 8.97868 5.41509C8.46148 5.21321 8.11698 4.74296 7.98286 3.94629Z" fill="white"/>
</g>
<defs>
<filter id="filter0_d_740_1190" x="8.94336" y="7.87476" width="9.17118" height="11.6546" filterUnits="userSpaceOnUse" color-interpolation-filters="sRGB">
<feFlood flood-opacity="0" result="BackgroundImageFix"/>
<feColorMatrix in="SourceAlpha" type="matrix" values="0 0 0 0 0 0 0 0 0 0 0 0 0 0 0 0 0 0 127 0" result="hardAlpha"/>
<feOffset dx="0.512486" dy="0.512486"/>
<feComposite in2="hardAlpha" operator="out"/>
<feColorMatrix type="matrix" values="0 0 0 0 0.513726 0 0 0 0 0.537255 0 0 0 0 0.537255 0 0 0 1 0"/>
<feBlend mode="normal" in2="BackgroundImageFix" result="effect1_dropShadow_740_1190"/>
<feBlend mode="normal" in="SourceGraphic" in2="effect1_dropShadow_740_1190" result="shape"/>
</filter>
<clipPath id="clip0_740_1190">
<rect width="26.5238" height="35.8204" fill="white"/>
</clipPath>
</defs>
</svg>
