<svg width="17" height="17" viewBox="0 0 17 17" fill="none" xmlns="http://www.w3.org/2000/svg">
<rect width="17" height="17" fill="white"/>
<g clip-path="url(#clip0_404_842)">
<path d="M8.50129 16.9999C4.64834 17.0025 1.30928 14.3189 0.539723 10.5999C0.320219 9.53922 0.315054 8.47594 0.552636 7.41521C0.57846 7.30329 0.570712 7.23461 0.449339 7.1761C0.152362 7.03874 0 6.79454 0 6.47912C0 6.15352 0.162692 5.91187 0.459669 5.76688C0.71791 5.63969 1.02263 5.56338 1.22923 5.38023C1.43065 5.20217 1.52879 4.91219 1.67598 4.67562C1.81543 4.45178 1.96263 4.23047 2.14598 4.04224C2.319 3.86418 2.39906 3.66068 2.41197 3.42157C2.41713 3.31982 2.43521 3.22062 2.45071 3.12141C2.53851 2.59995 3.07048 2.30996 3.55598 2.52364C3.64894 2.56434 3.70576 2.55162 3.78065 2.4982C5.3146 1.42729 7.02415 0.921092 8.90415 1.01012C10.4613 1.08389 11.8791 1.57228 13.1548 2.45496C13.2658 2.53127 13.3485 2.56179 13.4905 2.50583C13.9192 2.33286 14.3943 2.5796 14.5183 3.01966C14.5261 3.04255 14.5364 3.06545 14.5364 3.08834C14.5364 3.60472 14.7817 4.00662 15.1148 4.38564C15.3473 4.65019 15.5177 4.96306 15.6752 5.27848C15.7165 5.36243 15.7759 5.41839 15.8637 5.45654C16.0781 5.54812 16.2898 5.64987 16.5042 5.74653C16.8115 5.88643 16.9897 6.123 16.9974 6.45368C17.0052 6.77928 16.8476 7.02602 16.5532 7.17356C16.4474 7.22697 16.4241 7.28039 16.4499 7.39486C17.297 11.2995 14.9806 15.2931 11.1302 16.5701C10.2754 16.8524 9.40255 16.9999 8.50129 16.9999Z" fill="black"/>
<path d="M15.7811 9.01526C15.7734 12.5103 13.1987 15.4916 9.68663 16.0715C5.84142 16.7049 2.14083 14.2019 1.36869 10.4474C1.18792 9.56979 1.17243 8.68967 1.32479 7.80699C1.3532 7.6442 1.40485 7.61876 1.53655 7.70779C1.57528 7.73323 1.62177 7.75866 1.66567 7.76884C2.0582 7.8655 2.17957 8.13259 2.20023 8.50906C2.22605 8.96439 2.30869 9.41717 2.37583 9.86995C2.42232 10.1854 2.6005 10.4067 2.91039 10.5059C3.2177 10.6051 3.4966 10.544 3.72643 10.3151C4.12412 9.91574 4.52181 9.51637 4.91434 9.11192C5.00214 9.02035 5.0822 8.98982 5.2139 9.01526C5.75879 9.1221 6.30368 9.2213 6.85115 9.31542C7.37796 9.40699 7.77823 9.15008 7.86345 8.67695C7.89702 8.48617 7.84279 8.31319 7.75241 8.14785C7.49158 7.66455 7.23851 7.1787 6.97252 6.70048C6.91571 6.59873 6.92087 6.52242 6.97768 6.42575C7.24884 5.94245 7.50708 5.45151 7.78081 4.97075C7.959 4.65533 7.97708 4.34754 7.75499 4.05246C7.5329 3.75994 7.22818 3.70906 6.87955 3.77265C6.33983 3.87186 5.79752 3.9558 5.2578 4.05501C5.17 4.07027 5.11319 4.05501 5.05379 3.99141C4.82912 3.7523 4.60187 3.5132 4.36687 3.28172C4.27648 3.19269 4.30489 3.15707 4.39269 3.09857C5.31978 2.47281 6.33725 2.06836 7.4451 1.91574C9.29669 1.65882 11.0037 2.05564 12.566 3.06804C12.6951 3.15199 12.7313 3.20286 12.6022 3.32496C12.3878 3.52591 12.1916 3.74467 11.9953 3.96089C11.9307 4.02957 11.8688 4.05755 11.7758 4.03975C11.2232 3.94817 10.6679 3.86168 10.1153 3.77011C9.5885 3.68362 9.19339 3.91765 9.09784 4.38315C9.05652 4.58156 9.10817 4.75962 9.20372 4.93005C9.47746 5.41844 9.74861 5.90938 10.0301 6.39523C10.0843 6.48935 10.0817 6.56057 10.0301 6.65469C9.7641 7.14817 9.50845 7.64674 9.24504 8.14022C9.07977 8.44801 9.06944 8.74563 9.28119 9.02798C9.49295 9.31288 9.78735 9.39173 10.1334 9.3256C10.655 9.22385 11.1767 9.13227 11.6957 9.02035C11.8584 8.98474 11.9617 9.02035 12.0754 9.13482C12.4498 9.52146 12.8398 9.89539 13.222 10.2769C13.4699 10.5262 13.7565 10.6203 14.0948 10.5059C14.4331 10.3914 14.5906 10.1345 14.6319 9.7911C14.6939 9.24674 14.7714 8.70747 14.8334 8.16312C14.8437 8.06645 14.8824 8.01558 14.9677 7.97742C15.1536 7.89094 15.3369 7.80191 15.5151 7.7027C15.621 7.6442 15.6572 7.66455 15.6752 7.77901C15.7398 8.1911 15.7889 8.60318 15.7863 9.02035L15.7811 9.01526Z" fill="#FFD93B"/>
<path d="M9.86743 4.56883C10.4614 4.66295 11.0244 4.73926 11.5796 4.84356C11.985 4.91987 12.3104 4.83338 12.5867 4.52305C12.8889 4.18473 13.2142 3.86422 13.5319 3.53608C13.599 3.4674 13.6662 3.40381 13.7152 3.30969C13.8004 3.81589 13.8857 4.32209 13.9683 4.82829C13.9812 4.9046 13.9967 4.98092 14.0045 5.05723C14.0406 5.37011 14.2085 5.58378 14.4925 5.71351C15.0219 5.95516 15.5539 6.19681 16.0859 6.43847C16.0678 6.50715 16.0058 6.51224 15.9619 6.53513C15.4842 6.77678 15.009 7.01844 14.5287 7.255C14.2265 7.40254 14.0561 7.63402 14.0277 7.9647C13.9864 8.43274 13.9425 8.90079 13.8986 9.36883C13.8882 9.47567 13.8753 9.57996 13.865 9.6868C13.7875 9.67662 13.7565 9.61812 13.7152 9.57742C13.3356 9.20349 12.9534 8.83211 12.579 8.45055C12.3233 8.19109 12.0315 8.10715 11.6751 8.19363C11.1199 8.32591 10.5621 8.44546 10.0017 8.57265C9.98364 8.50143 10.0275 8.46073 10.0482 8.41748C10.3013 7.93163 10.5569 7.44578 10.8152 6.96247C10.9753 6.66232 10.9701 6.37742 10.7868 6.08489C10.4795 5.59395 10.1877 5.09793 9.86743 4.56883Z" fill="#FF8402"/>
<path d="M6.98796 8.49127C6.41466 8.38953 5.88011 8.30558 5.35071 8.19366C4.9556 8.11226 4.64571 8.20383 4.37973 8.50399C4.01044 8.91862 3.62566 9.32053 3.21764 9.7555C3.17632 9.47569 3.14017 9.22895 3.1066 8.97967C3.05753 8.621 3.00588 8.26234 2.96198 7.90113C2.92583 7.61115 2.77863 7.40256 2.51264 7.27792C1.96517 7.021 1.45386 6.68778 0.821167 6.5148L1.61655 6.13833C1.91611 5.99588 2.21309 5.85598 2.51264 5.71608C2.79154 5.58635 2.95165 5.37267 2.99814 5.07251C3.08336 4.53325 3.19698 3.99652 3.18665 3.44708C3.18665 3.40129 3.17891 3.35042 3.22797 3.297C3.33643 3.40892 3.44231 3.5183 3.54819 3.62768C3.85291 3.94056 4.16022 4.25089 4.45978 4.5714C4.70769 4.83849 4.9995 4.92498 5.35846 4.84358C5.91626 4.71894 6.47664 4.6121 7.03702 4.49763C7.06027 4.5714 7.01378 4.60956 6.99054 4.6528C6.72972 5.13356 6.46889 5.61687 6.20032 6.09509C6.03763 6.38507 6.03763 6.66997 6.19258 6.95995C6.4534 7.45344 6.70906 7.952 6.99054 8.48873L6.98796 8.49127Z" fill="#FF8402"/>
<path d="M8.59163 15.2016C6.13059 15.2016 4.09823 13.2658 4.04917 10.9078C4.04142 10.4957 4.24027 10.3024 4.6612 10.3355C5.23191 10.3787 5.80004 10.4703 6.36559 10.5517C7.70586 10.745 9.04355 10.7679 10.389 10.5848C11.063 10.4906 11.737 10.3889 12.4188 10.3406C12.5892 10.3278 12.7596 10.3278 12.8991 10.4499C13.0205 10.5568 13.0618 10.6941 13.0592 10.8493C13.0489 12.9352 11.4039 14.815 9.31212 15.1355C9.06162 15.1736 8.80855 15.194 8.59163 15.2016Z" fill="black"/>
<path d="M12.171 11.3122C12.016 12.2381 11.5693 12.9936 10.8307 13.5838C10.7661 13.6346 10.7351 13.6168 10.6835 13.5711C9.4775 12.5358 7.82218 12.6095 6.73757 13.7466C6.66009 13.828 6.61103 13.8229 6.52839 13.7669C5.6607 13.1768 5.12356 12.3806 4.94021 11.3555C4.9118 11.2028 4.96862 11.2003 5.08482 11.2181C5.65295 11.2944 6.22108 11.3656 6.78921 11.442C7.92547 11.5971 9.06173 11.5895 10.2006 11.4445C10.8049 11.3682 11.4091 11.2893 12.0134 11.2181C12.0754 11.2105 12.2019 11.1443 12.1735 11.3122H12.171Z" fill="#B74470"/>
<path d="M9.96296 14.0849C9.14176 14.4105 8.32571 14.4512 7.48901 14.207C7.90995 13.5914 9.37417 13.5125 9.96296 14.0849Z" fill="#B74470"/>
</g>
<defs>
<clipPath id="clip0_404_842">
<rect width="17" height="16" fill="white" transform="translate(0 1)"/>
</clipPath>
</defs>
</svg>
