<svg width="17" height="17" viewBox="0 0 17 17" fill="none" xmlns="http://www.w3.org/2000/svg">
<g clip-path="url(#clip0_404_824)">
<path d="M8.50133 16.3919C12.859 16.3919 16.3916 12.861 16.3916 8.50538C16.3916 4.1498 12.859 0.618896 8.50133 0.618896C4.14367 0.618896 0.611084 4.1498 0.611084 8.50538C0.611084 12.861 4.14367 16.3919 8.50133 16.3919Z" fill="#72D5FF"/>
<path d="M9.03134 16.9996H7.96867C7.76046 16.9753 7.55225 16.951 7.34675 16.9212C5.66216 16.678 4.16956 16.0077 2.89598 14.878C1.41148 13.5672 0.486719 11.9347 0.132496 9.98339C0.0757118 9.66988 0.0432639 9.35096 0 9.03474V7.97258C0.010816 7.91853 0.0216319 7.86447 0.0297439 7.81042C0.0919357 7.40772 0.12168 6.99691 0.219023 6.59961C0.865278 3.97529 2.40655 2.05096 4.82663 0.850961C6.42739 0.0563665 8.13631 -0.173363 9.89661 0.126637C12.1031 0.502312 13.9012 1.5888 15.2559 3.36447C16.6755 5.22393 17.2217 7.33474 16.9189 9.65096C16.6972 11.3564 15.9941 12.8591 14.8476 14.1401C13.5389 15.6023 11.9138 16.5158 9.98044 16.8645C9.66677 16.9212 9.3477 16.9537 9.03134 16.9969V16.9996ZM15.9373 8.50231C15.9373 4.40772 12.6033 1.07799 8.50676 1.07258C4.40751 1.06718 1.05997 4.41042 1.06267 8.50772C1.06267 12.5996 4.39669 15.932 8.49324 15.9401C12.5925 15.9456 15.94 12.6023 15.9373 8.50501V8.50231Z" fill="black"/>
<path d="M11.6353 10.6865C11.6353 10.9459 11.4812 11.1432 11.2 11.2189C10.5132 11.4054 9.82366 11.5865 9.13415 11.7702C8.10392 12.0459 7.0737 12.3243 6.04348 12.5946C5.70819 12.6838 5.40264 12.4729 5.37019 12.1432C5.34315 11.8621 5.50809 11.6405 5.80283 11.5621C6.5329 11.3675 7.26569 11.1729 7.99576 10.9756C8.98272 10.7108 9.96968 10.4459 10.9566 10.1838C11.3109 10.0892 11.6299 10.3324 11.6353 10.6838V10.6865Z" fill="black"/>
<path d="M6.00823 5.04858C6.6004 5.04858 7.0736 5.52156 7.07089 6.11075C7.06819 6.69723 6.58418 7.17561 6.00011 7.17291C5.42146 7.17021 4.94556 6.69183 4.94556 6.11345C4.94556 5.52156 5.41605 5.04858 6.00823 5.04858Z" fill="black"/>
<path d="M10.9971 5.04863C11.5893 5.05404 12.0571 5.52701 12.0544 6.1189C12.0517 6.69728 11.5704 7.17296 10.9917 7.17296C10.3996 7.17296 9.92094 6.68647 9.92906 6.08917C9.93717 5.50809 10.4131 5.04323 10.9971 5.04863Z" fill="black"/>
</g>
<defs>
<clipPath id="clip0_404_824">
<rect width="17" height="17" fill="white"/>
</clipPath>
</defs>
</svg>
