<svg width="17" height="17" viewBox="0 0 17 17" fill="none" xmlns="http://www.w3.org/2000/svg">
<rect width="17" height="17" fill="white"/>
<g clip-path="url(#clip0_404_852)">
<path d="M16.5532 7.17368C16.8476 7.02614 17.0077 6.7794 16.9974 6.45381C16.9897 6.12058 16.8115 5.88401 16.5042 5.74665C16.2898 5.64999 16.0781 5.54824 15.8637 5.45667C15.7759 5.41851 15.7165 5.36255 15.6752 5.27861C15.5177 4.96319 15.3473 4.65031 15.1148 4.38576C14.7817 4.00675 14.539 3.60484 14.5364 3.08847C14.5364 3.06557 14.5235 3.04268 14.5183 3.01979C14.3944 2.58227 13.9166 2.33298 13.4905 2.50595C13.3485 2.56192 13.2658 2.53393 13.1548 2.45508C11.8791 1.57241 10.4588 1.08147 8.90415 1.01025C7.02415 0.92376 5.3146 1.42742 3.78323 2.50087C3.70834 2.55428 3.65153 2.567 3.55856 2.5263C3.07048 2.31009 2.53851 2.60262 2.45329 3.12408C2.43779 3.22328 2.41972 3.32503 2.41455 3.42424C2.40164 3.66335 2.32159 3.86684 2.14856 4.0449C1.96521 4.23314 1.81802 4.45444 1.67857 4.67829C1.53137 4.91486 1.43324 5.20484 1.23181 5.3829C1.02522 5.56605 0.720492 5.64236 0.462251 5.76955C0.162692 5.91199 0 6.15365 0 6.47924C0 6.79721 0.152362 7.04141 0.449339 7.17622C0.573295 7.23219 0.57846 7.30341 0.552636 7.41533C0.317636 8.47606 0.320219 9.53934 0.539724 10.6001C1.3067 14.3215 4.64834 17.0026 8.50129 17.0001C9.40255 17.0001 10.2754 16.8551 11.1302 16.5702C14.9806 15.2907 17.297 11.2996 16.4499 7.39498C16.4241 7.28052 16.4499 7.2271 16.5532 7.17368ZM1.61401 6.14347C1.91357 6.00102 2.21054 5.86112 2.5101 5.72122C2.789 5.59149 2.94911 5.37781 2.99559 5.07765C3.08081 4.53839 3.19444 4.00166 3.18411 3.45222C3.18411 3.40643 3.17636 3.35556 3.22543 3.30214C3.33389 3.41406 3.43977 3.52344 3.54565 3.63282C3.85037 3.9457 4.15768 4.25603 4.45724 4.57654C4.70515 4.84363 4.99696 4.93012 5.35592 4.84872C5.91372 4.72408 6.4741 4.61724 7.03448 4.50277C7.05772 4.57654 7.01124 4.6147 6.988 4.65794C6.72718 5.1387 6.46635 5.62201 6.19778 6.10023C6.03509 6.39021 6.03509 6.67511 6.19004 6.9651C6.45086 7.45858 6.70652 7.95715 6.988 8.49387C6.4147 8.39212 5.88015 8.30818 5.35075 8.19626C4.95564 8.11486 4.64575 8.20643 4.37977 8.50659C4.01048 8.92122 3.6257 9.32312 3.21768 9.7581C3.17636 9.47829 3.14021 9.23155 3.10664 8.98226C3.05757 8.6236 3.00592 8.26494 2.96202 7.90373C2.92587 7.61374 2.77867 7.40516 2.51268 7.28052C1.96521 7.0236 1.4539 6.69037 0.821206 6.5174C1.10785 6.38258 1.36093 6.26303 1.61659 6.14093L1.61401 6.14347ZM9.6892 16.0716C5.84399 16.705 2.1434 14.202 1.37126 10.4474C1.19049 9.56986 1.175 8.68974 1.32736 7.80707C1.35576 7.64427 1.40741 7.61883 1.53912 7.70786C1.57785 7.7333 1.62434 7.75874 1.66824 7.76891C2.06076 7.86557 2.18214 8.13266 2.2028 8.50913C2.22862 8.96446 2.31126 9.41724 2.3784 9.87002C2.42488 10.1854 2.60307 10.4067 2.91296 10.506C3.22026 10.6052 3.49916 10.5441 3.729 10.3152C4.12669 9.91581 4.52438 9.51645 4.91691 9.11199C5.00471 9.02042 5.08476 8.9899 5.21647 9.01533C5.76136 9.12217 6.30624 9.22137 6.85371 9.31549C7.38053 9.40707 7.7808 9.15015 7.86602 8.67702C7.89959 8.48624 7.84536 8.31327 7.75498 8.14792C7.49415 7.66462 7.24108 7.17877 6.97509 6.70055C6.91827 6.5988 6.92344 6.52249 6.98025 6.42583C7.25141 5.94252 7.50965 5.45158 7.78338 4.97082C7.96157 4.6554 7.97965 4.34761 7.75756 4.05254C7.53547 3.76001 7.23075 3.70913 6.88212 3.77273C6.3424 3.87193 5.80009 3.95587 5.26037 4.05508C5.17257 4.07034 5.11575 4.05508 5.05636 3.99149C4.83169 3.75238 4.60444 3.51327 4.36944 3.28179C4.27905 3.19276 4.30746 3.15715 4.39526 3.09864C5.32235 2.47289 6.33982 2.06843 7.44767 1.91581C9.29926 1.6589 11.0062 2.05572 12.5686 3.06812C12.6977 3.15206 12.7339 3.20293 12.6047 3.32503C12.3904 3.52599 12.1941 3.74475 11.9979 3.96096C11.9333 4.02964 11.8713 4.05762 11.7784 4.03982C11.2257 3.94824 10.6705 3.86176 10.1179 3.77018C9.59107 3.6837 9.19596 3.91772 9.10041 4.38322C9.05909 4.58163 9.11074 4.75969 9.20629 4.93012C9.48003 5.41851 9.75118 5.90945 10.0327 6.3953C10.0869 6.48942 10.0843 6.56064 10.0327 6.65476C9.76667 7.14824 9.51101 7.64681 9.24761 8.14029C9.08233 8.44808 9.072 8.7457 9.28376 9.02805C9.49552 9.31295 9.78991 9.3918 10.136 9.32567C10.6576 9.22392 11.1793 9.13234 11.6983 9.02042C11.861 8.98481 11.9643 9.02042 12.0779 9.13489C12.4524 9.52153 12.8423 9.89546 13.2245 10.277C13.4724 10.5263 13.7591 10.6204 14.0974 10.506C14.4357 10.3915 14.5932 10.1346 14.6345 9.79117C14.6965 9.24681 14.774 8.705 14.8359 8.16319C14.8463 8.06653 14.885 8.01565 14.9702 7.9775C15.1562 7.89101 15.3395 7.80198 15.5177 7.70277C15.6236 7.64427 15.6597 7.66462 15.6778 7.77909C15.7424 8.19117 15.7914 8.60325 15.7889 9.02042C15.7811 12.5155 13.2064 15.4967 9.69437 16.0767L9.6892 16.0716ZM15.9619 6.53775C15.4841 6.7794 15.009 7.02106 14.5286 7.25762C14.2265 7.40516 14.0561 7.63664 14.0276 7.96732C13.9863 8.43537 13.9424 8.90341 13.8985 9.37145C13.8882 9.47829 13.8753 9.58258 13.865 9.69196C13.7875 9.68179 13.7565 9.62328 13.7152 9.58258C13.3356 9.20866 12.9534 8.83727 12.5789 8.45571C12.3233 8.19626 12.0314 8.11231 11.6751 8.1988C11.1199 8.33107 10.5621 8.45063 10.0017 8.57781C9.98359 8.50659 10.0275 8.46589 10.0482 8.42265C10.3012 7.9368 10.5569 7.45095 10.8151 6.96764C10.9752 6.66748 10.9701 6.38258 10.7867 6.09006C10.4794 5.59912 10.1876 5.10309 9.86739 4.574C10.4613 4.66812 11.0243 4.74443 11.5795 4.84872C11.985 4.92503 12.3103 4.83855 12.5867 4.52821C12.8888 4.1899 13.2142 3.86939 13.5318 3.54125C13.599 3.47257 13.6661 3.40897 13.7152 3.31486C13.8004 3.82106 13.8856 4.32726 13.9683 4.83346C13.9812 4.90977 13.9967 4.98608 14.0044 5.06239C14.0406 5.37527 14.2084 5.58894 14.4925 5.71867C15.0219 5.96033 15.5539 6.20198 16.0858 6.44363C16.0678 6.51231 16.0058 6.5174 15.9619 6.54029V6.53775Z" fill="#989898"/>
<path d="M12.8965 10.4499C12.7571 10.3278 12.5866 10.3278 12.4162 10.3405C11.7344 10.3888 11.0604 10.4931 10.3864 10.5847C9.04098 10.7704 7.7033 10.7475 6.36303 10.5516C5.7949 10.4702 5.22935 10.3787 4.65864 10.3354C4.2377 10.3023 4.03886 10.4957 4.0466 10.9077C4.09567 13.2658 6.13061 15.2015 8.58906 15.2015C8.80598 15.1939 9.05906 15.1736 9.30955 15.1354C11.4013 14.8149 13.0437 12.9326 13.0566 10.8492C13.0566 10.6941 13.0179 10.5567 12.8965 10.4499ZM7.49154 14.207C7.91247 13.5914 9.3767 13.5125 9.96549 14.0849C9.14428 14.4105 8.32824 14.4512 7.49154 14.207ZM12.1709 11.3097C12.0159 12.2356 11.5692 12.9911 10.8306 13.5812C10.766 13.6321 10.735 13.6143 10.6834 13.5685C9.47741 12.5332 7.82209 12.607 6.73747 13.744C6.66 13.8254 6.61094 13.8203 6.5283 13.7643C5.66061 13.1742 5.12347 12.378 4.94012 11.3529C4.91171 11.2003 4.96852 11.1977 5.08473 11.2155C5.65286 11.2919 6.22099 11.3631 6.78912 11.4394C7.92538 11.5946 9.06164 11.5869 10.2005 11.4419C10.8048 11.3656 11.4091 11.2868 12.0133 11.2155C12.0753 11.2079 12.2019 11.1418 12.1734 11.3097H12.1709Z" fill="#989898"/>
</g>
<defs>
<clipPath id="clip0_404_852">
<rect width="17" height="16" fill="white" transform="translate(0 1)"/>
</clipPath>
</defs>
</svg>
