<svg width="17" height="17" viewBox="0 0 17 17" fill="none" xmlns="http://www.w3.org/2000/svg">
<g clip-path="url(#clip0_404_817)">
<path d="M9.03134 16.9999H7.96867C7.76046 16.9756 7.55225 16.9513 7.34675 16.9215C5.66216 16.6783 4.16956 16.008 2.89598 14.8783C1.41148 13.5675 0.486719 11.935 0.132496 9.9837C0.0757118 9.67018 0.0432639 9.35127 0 9.03505V7.97289C0.010816 7.91883 0.0216319 7.86478 0.0297439 7.81073C0.0919357 7.40802 0.12168 6.99721 0.219023 6.59991C0.865278 3.97559 2.40655 2.05127 4.82663 0.851266C6.42739 0.0566717 8.13631 -0.173058 9.89661 0.126942C12.1031 0.502618 13.9012 1.5891 15.2559 3.36478C16.6755 5.22424 17.2217 7.33505 16.9189 9.65127C16.6972 11.3567 15.9941 12.8594 14.8476 14.1405C13.5389 15.6026 11.9138 16.5161 9.98044 16.8648C9.66677 16.9215 9.3477 16.954 9.03134 16.9972V16.9999ZM15.9373 8.50262C15.9373 4.40802 12.6033 1.07829 8.50676 1.07289C4.40751 1.06748 1.05997 4.41073 1.06267 8.50802C1.06267 12.5999 4.39669 15.9323 8.49324 15.9405C12.5925 15.9459 15.94 12.6026 15.9373 8.50532V8.50262Z" fill="#989898"/>
<path d="M11.6353 10.6865C11.6353 10.9459 11.4812 11.1432 11.2 11.2189C10.5132 11.4054 9.82366 11.5865 9.13415 11.7702C8.10392 12.0459 7.0737 12.3243 6.04348 12.5946C5.70819 12.6838 5.40264 12.4729 5.37019 12.1432C5.34315 11.8621 5.50809 11.6405 5.80283 11.5621C6.5329 11.3675 7.26569 11.1729 7.99576 10.9756C8.98272 10.7108 9.96968 10.4459 10.9566 10.1838C11.3109 10.0892 11.6299 10.3324 11.6353 10.6838V10.6865Z" fill="#989898"/>
<path d="M6.00823 5.04865C6.6004 5.04865 7.0736 5.52162 7.07089 6.11081C7.06819 6.69729 6.58418 7.17567 6.00011 7.17297C5.42146 7.17027 4.94556 6.69189 4.94556 6.11351C4.94556 5.52162 5.41605 5.04865 6.00823 5.04865Z" fill="#989898"/>
<path d="M10.9971 5.04863C11.5893 5.05404 12.0571 5.52701 12.0544 6.1189C12.0517 6.69728 11.5704 7.17296 10.9917 7.17296C10.3996 7.17296 9.92094 6.68647 9.92906 6.08917C9.93717 5.50809 10.4131 5.04323 10.9971 5.04863Z" fill="#989898"/>
</g>
<defs>
<clipPath id="clip0_404_817">
<rect width="17" height="17" fill="white"/>
</clipPath>
</defs>
</svg>
